<?xml version="1.0" encoding="UTF-8" standalone="no"?>
<!-- Created with Inkscape (http://www.inkscape.org/) -->

<svg
   xmlns:dc="http://purl.org/dc/elements/1.1/"
   xmlns:cc="http://creativecommons.org/ns#"
   xmlns:rdf="http://www.w3.org/1999/02/22-rdf-syntax-ns#"
   xmlns:svg="http://www.w3.org/2000/svg"
   xmlns="http://www.w3.org/2000/svg"
   xmlns:sodipodi="http://sodipodi.sourceforge.net/DTD/sodipodi-0.dtd"
   xmlns:inkscape="http://www.inkscape.org/namespaces/inkscape"
   width="32"
   height="32"
   id="svg4552"
   version="1.1"
   inkscape:version="0.48.2 r9819"
   sodipodi:docname="python-edinburgh-favicon.svg"
   inkscape:export-filename="/Users/mark/Documents/Development/pythonedinburgh/app/static/favicon.png"
   inkscape:export-xdpi="90"
   inkscape:export-ydpi="90">
  <defs
     id="defs4554" />
  <sodipodi:namedview
     id="base"
     pagecolor="#ffffff"
     bordercolor="#666666"
     borderopacity="1.0"
     inkscape:pageopacity="0.0"
     inkscape:pageshadow="2"
     inkscape:zoom="18.865591"
     inkscape:cx="20.02686"
     inkscape:cy="16.034483"
     inkscape:document-units="px"
     inkscape:current-layer="layer1"
     showgrid="true"
     fit-margin-top="0"
     fit-margin-left="0"
     fit-margin-right="0"
     fit-margin-bottom="0"
     inkscape:window-width="1436"
     inkscape:window-height="856"
     inkscape:window-x="4"
     inkscape:window-y="0"
     inkscape:window-maximized="1">
    <inkscape:grid
       type="xygrid"
       id="grid4592"
       empspacing="6"
       visible="true"
       enabled="true"
       snapvisiblegridlinesonly="true" />
  </sodipodi:namedview>
  <metadata
     id="metadata4557">
    <rdf:RDF>
      <cc:Work
         rdf:about="">
        <dc:format>image/svg+xml</dc:format>
        <dc:type
           rdf:resource="http://purl.org/dc/dcmitype/StillImage" />
        <dc:title></dc:title>
      </cc:Work>
    </rdf:RDF>
  </metadata>
  <g
     inkscape:label="Layer 1"
     inkscape:groupmode="layer"
     id="layer1"
     transform="translate(-550.85712,-706.64789)">
    <g
       transform="matrix(0.20574695,0.20174953,-0.20574695,0.20174953,541.6023,611.66925)"
       id="g4033-0-7-3"
       style="fill:none;stroke:#1476b6;stroke-width:6.94131947;stroke-miterlimit:4;stroke-opacity:1;stroke-dasharray:none">
      <path
         style="font-size:medium;font-style:normal;font-variant:normal;font-weight:normal;font-stretch:normal;text-indent:0;text-align:start;text-decoration:none;line-height:normal;letter-spacing:normal;word-spacing:normal;text-transform:none;direction:ltr;block-progression:tb;writing-mode:lr-tb;text-anchor:start;baseline-shift:baseline;color:#000000;fill:#1476b6;fill-opacity:1;stroke:none;stroke-width:6.94131947;marker:none;visibility:visible;display:inline;overflow:visible;enable-background:accumulate;font-family:Sans;-inkscape-font-specification:Sans"
         d="m 335.8125,154.3125 c -4.77072,0.0222 -9.33464,0.43578 -13.40625,1.15625 -6.04619,1.06817 -10.25722,2.78968 -12.96875,5.96875 -2.71153,3.17907 -3.28125,7.19829 -3.28125,11.375 0.16897,8.52457 1.82746,10.15625 -6.59375,10.15625 -9.18317,0 -17.66459,5.97828 -20.125,16.25 -2.53342,10.51 -2.65011,17.88296 0,28.875 1.0557,4.39684 2.87604,8.39982 5.8125,11.40625 2.93646,3.00643 7.07658,4.84375 11.8125,4.84375 10.27714,-0.86179 9.09375,0.63803 9.09375,10.15625 0,9.21827 7.65095,15.93661 16.28125,17.375 l 0.0312,0 c 4.82162,0.80263 9.76056,1.14717 14.53125,1.125 4.77071,-0.0222 9.33464,-0.40453 13.40625,-1.125 6.04619,-1.06816 10.28847,-2.82092 13,-6 2.71153,-3.17908 3.28125,-7.19829 3.28125,-11.375 -0.16897,-8.52457 -1.82746,-10.15625 6.59375,-10.15625 9.18317,0 17.66459,-5.97828 20.125,-16.25 2.53342,-10.51 2.65011,-17.88296 0,-28.875 -1.0557,-4.39684 -2.87604,-8.36857 -5.8125,-11.375 -2.93646,-3.00643 -7.07658,-4.875 -11.8125,-4.875 -10.27714,0.86179 -9.09375,-0.63803 -9.09375,-10.15625 0,-9.21827 -7.6822,-15.90535 -16.3125,-17.34375 -4.82162,-0.80261 -9.79182,-1.17841 -14.5625,-1.15625 z"
         id="path3869"
         inkscape:connector-curvature="0"
         sodipodi:nodetypes="ccsccccsccccscsccccsccccc" />
      <path
         style="font-size:medium;font-style:normal;font-variant:normal;font-weight:normal;font-stretch:normal;text-indent:0;text-align:start;text-decoration:none;line-height:normal;letter-spacing:normal;word-spacing:normal;text-transform:none;direction:ltr;block-progression:tb;writing-mode:lr-tb;text-anchor:start;baseline-shift:baseline;color:#000000;fill:#1476b6;fill-opacity:1;stroke:none;stroke-width:6.94131947;marker:none;visibility:visible;display:inline;overflow:visible;enable-background:accumulate;font-family:Sans;-inkscape-font-specification:Sans"
         d="m 321.3437,169.46875 c 0.84917,0 1.5625,0.68143 1.5625,1.65625 0,0.95824 -0.69559,1.625 -1.5625,1.625 -0.88365,0 -1.5625,-0.65861 -1.5625,-1.625 0,-0.98294 0.69653,-1.65625 1.5625,-1.65625 z"
         id="path3865" />
      <path
         style="font-size:medium;font-style:normal;font-variant:normal;font-weight:normal;font-stretch:normal;text-indent:0;text-align:start;text-decoration:none;line-height:normal;letter-spacing:normal;word-spacing:normal;text-transform:none;direction:ltr;block-progression:tb;writing-mode:lr-tb;text-anchor:start;baseline-shift:baseline;color:#000000;fill:#1476b6;fill-opacity:1;stroke:none;stroke-width:6.94131947;marker:none;visibility:visible;display:inline;overflow:visible;enable-background:accumulate;font-family:Sans;-inkscape-font-specification:Sans"
         d="m 313.12495,172.53125 c 0.65951,3.78271 3.70886,6.72569 7.59375,7.03125 l -7.625,0 0,-6.75 c 0,-0.11805 0.0302,-0.1667 0.0312,-0.28125 z"
         id="path3863" />
      <path
         style="font-size:medium;font-style:normal;font-variant:normal;font-weight:normal;font-stretch:normal;text-indent:0;text-align:start;text-decoration:none;line-height:normal;letter-spacing:normal;word-spacing:normal;text-transform:none;direction:ltr;block-progression:tb;writing-mode:lr-tb;text-anchor:start;baseline-shift:baseline;color:#000000;fill:#1476b6;fill-opacity:1;stroke:none;stroke-width:6.94131947;marker:none;visibility:visible;display:inline;overflow:visible;enable-background:accumulate;font-family:Sans;-inkscape-font-specification:Sans"
         d="m 352.0937,247.75 7.65625,0 0,6.75 c 0,0.14299 -0.0297,0.20589 -0.0312,0.34375 -0.64124,-3.81541 -3.71054,-6.79853 -7.625,-7.09375 z"
         id="path3859" />
      <path
         style="font-size:medium;font-style:normal;font-variant:normal;font-weight:normal;font-stretch:normal;text-indent:0;text-align:start;text-decoration:none;line-height:normal;letter-spacing:normal;word-spacing:normal;text-transform:none;direction:ltr;block-progression:tb;writing-mode:lr-tb;text-anchor:start;baseline-shift:baseline;color:#000000;fill:#1476b6;fill-opacity:1;stroke:none;stroke-width:6.94131947;marker:none;visibility:visible;display:inline;overflow:visible;enable-background:accumulate;font-family:Sans;-inkscape-font-specification:Sans"
         d="m 351.5,254.5625 c 0.88364,0 1.5625,0.65863 1.5625,1.625 0,0.98294 -0.69654,1.65625 -1.5625,1.65625 -0.84918,0 -1.5625,-0.68143 -1.5625,-1.65625 0,-0.95823 0.69556,-1.625 1.5625,-1.625 z"
         id="path3857" />
      <path
         style="font-size:medium;font-style:normal;font-variant:normal;font-weight:normal;font-stretch:normal;text-indent:0;text-align:start;text-decoration:none;line-height:normal;letter-spacing:normal;word-spacing:normal;text-transform:none;direction:ltr;block-progression:tb;writing-mode:lr-tb;text-anchor:start;baseline-shift:baseline;color:#000000;fill:#1476b6;fill-opacity:1;stroke:none;stroke-width:6.94131947;marker:none;visibility:visible;display:inline;overflow:visible;enable-background:accumulate;font-family:Sans;-inkscape-font-specification:Sans"
         d="m 358.25,261.09375 c -0.0578,0.0759 -0.0633,0.20891 -0.125,0.28125 -0.0184,0.0216 -0.0746,0.0409 -0.0937,0.0625 0.084,-0.10691 0.13975,-0.23292 0.21875,-0.34375 z"
         id="path1948-7-6-5-2-8-3" />
    </g>
    <g
       transform="matrix(0.20574695,0.20174953,-0.20574695,0.20174953,541.6023,611.66925)"
       id="g4033-0-7"
       style="fill:#ffffff"
       sodipodi:insensitive="true">
      <path
         id="path1948-75-2-4-6"
         d="m 335.83602,157.79213 c -4.58366,0.0213 -8.96094,0.41222 -12.8125,1.09375 -11.34622,2.00451 -13.40625,6.2001 -13.40625,13.9375 l 0,10.21875 26.8125,0 0,3.40625 -26.8125,0 -10.0625,0 c -7.79246,0 -14.61576,4.68372 -16.75,13.59375 -2.46182,10.21297 -2.57102,16.58602 0,27.25 1.90592,7.93785 6.45754,13.59375 14.25,13.59375 l 9.21875,0 0,-12.25 c 0,-8.8499 7.65714,-16.65625 16.75,-16.65625 l 26.78125,0 c 7.45495,0 13.40625,-6.13816 13.40625,-13.625 l 0,-25.53125 c 0,-7.26634 -6.12998,-12.72477 -13.40625,-13.9375 -4.60599,-0.76672 -9.3851,-1.11504 -13.96875,-1.09375 z m -14.5,8.21875 c 2.76954,0 5.03125,2.29865 5.03125,5.125 -1e-5,2.81634 -2.26171,5.09375 -5.03125,5.09375 -2.77948,0 -5.03125,-2.27741 -5.03125,-5.09375 -1e-5,-2.82635 2.25177,-5.125 5.03125,-5.125 z"
         style="fill:#ffffff;fill-opacity:1"
         inkscape:connector-curvature="0" />
      <path
         id="path1948-7-6-5-2-8"
         d="m 336.99228,269.54213 c 4.58365,-0.0213 8.96094,-0.41222 12.8125,-1.09375 11.34621,-2.0045 13.40624,-6.2001 13.40624,-13.9375 l 0,-10.21875 -26.81249,0 0,-3.40625 26.81249,0 10.0625,0 c 7.79246,0 14.61576,-4.68372 16.75,-13.59375 2.46182,-10.21297 2.57102,-16.58602 0,-27.25 -1.90592,-7.93785 -6.45754,-13.59375 -14.25,-13.59375 l -9.21875,0 0,12.25 c 0,8.8499 -7.65714,16.65625 -16.74999,16.65625 l -26.78125,0 c -7.45495,0 -13.40626,6.13816 -13.40625,13.625 l 0,25.53125 c 0,7.26634 6.12998,12.72478 13.40625,13.9375 4.60598,0.76673 9.38509,1.11505 13.96875,1.09375 z m 14.5,-8.21875 c -2.76955,0 -5.03125,-2.29865 -5.03125,-5.125 0,-2.81634 2.2617,-5.09374 5.03125,-5.09374 2.77947,0 5.03125,2.27741 5.03125,5.09374 0,2.82635 -2.25178,5.125 -5.03125,5.125 z"
         style="fill:#ffffff;fill-opacity:1"
         inkscape:connector-curvature="0" />
    </g>
    <g
       transform="matrix(0.20574695,0.20174953,-0.20574695,0.20174953,588.70457,611.03035)"
       id="g4033-0-7-3-6"
       style="fill:none;stroke:#1476b6;stroke-width:6.94131947;stroke-miterlimit:4;stroke-opacity:1;stroke-dasharray:none" />
    <g
       transform="matrix(0.20574695,0.20174953,-0.20574695,0.20174953,579.4442,609.77982)"
       id="g4033-0-7-3-5"
       style="fill:none;stroke:#1476b6;stroke-width:6.94131947;stroke-miterlimit:4;stroke-opacity:1;stroke-dasharray:none">
      <path
         inkscape:connector-curvature="0"
         style="font-size:medium;font-style:normal;font-variant:normal;font-weight:normal;font-stretch:normal;text-indent:0;text-align:start;text-decoration:none;line-height:normal;letter-spacing:normal;word-spacing:normal;text-transform:none;direction:ltr;block-progression:tb;writing-mode:lr-tb;text-anchor:start;baseline-shift:baseline;color:#000000;fill:#1476b6;fill-opacity:1;stroke:none;stroke-width:6.94131947;marker:none;visibility:visible;display:inline;overflow:visible;enable-background:accumulate;font-family:Sans;-inkscape-font-specification:Sans"
         d="m 335.8125,154.3125 c -4.77072,0.0222 -9.33464,0.43578 -13.40625,1.15625 -6.04619,1.06817 -10.25722,2.78968 -12.96875,5.96875 -2.71153,3.17907 -3.28125,7.19829 -3.28125,11.375 l 0,10.15625 -6.59375,0 c -9.18317,0 -17.66459,5.97828 -20.125,16.25 -2.53342,10.51 -2.65011,17.88296 0,28.875 1.0557,4.39684 2.87604,8.39982 5.8125,11.40625 2.93646,3.00643 7.07658,4.84375 11.8125,4.84375 l 9.09375,0 0,10.15625 c 0,9.21827 7.65095,15.93661 16.28125,17.375 l 0.0312,0 c 4.82162,0.80263 9.76056,1.14717 14.53125,1.125 4.77071,-0.0222 9.33464,-0.40453 13.40625,-1.125 6.04619,-1.06816 10.28847,-2.82092 13,-6 2.71153,-3.17908 3.28125,-7.19829 3.28125,-11.375 l 0,-10.15625 6.59375,0 c 9.18317,0 17.66459,-5.97828 20.125,-16.25 2.53342,-10.51 2.65011,-17.88296 0,-28.875 -1.0557,-4.39684 -2.87604,-8.36857 -5.8125,-11.375 -2.93646,-3.00643 -7.07658,-4.875 -11.8125,-4.875 l -9.09375,0 0,-10.15625 c 0,-9.21827 -7.6822,-15.90535 -16.3125,-17.34375 -4.82162,-0.80261 -9.79182,-1.17841 -14.5625,-1.15625 z"
         id="path3869-8" />
      <path
         inkscape:connector-curvature="0"
         style="font-size:medium;font-style:normal;font-variant:normal;font-weight:normal;font-stretch:normal;text-indent:0;text-align:start;text-decoration:none;line-height:normal;letter-spacing:normal;word-spacing:normal;text-transform:none;direction:ltr;block-progression:tb;writing-mode:lr-tb;text-anchor:start;baseline-shift:baseline;color:#000000;fill:#1476b6;fill-opacity:1;stroke:none;stroke-width:6.94131947;marker:none;visibility:visible;display:inline;overflow:visible;enable-background:accumulate;font-family:Sans;-inkscape-font-specification:Sans"
         d="m 321.3437,169.46875 c 0.84917,0 1.5625,0.68143 1.5625,1.65625 0,0.95824 -0.69559,1.625 -1.5625,1.625 -0.88365,0 -1.5625,-0.65861 -1.5625,-1.625 0,-0.98294 0.69653,-1.65625 1.5625,-1.65625 z"
         id="path3865-3" />
      <path
         inkscape:connector-curvature="0"
         style="font-size:medium;font-style:normal;font-variant:normal;font-weight:normal;font-stretch:normal;text-indent:0;text-align:start;text-decoration:none;line-height:normal;letter-spacing:normal;word-spacing:normal;text-transform:none;direction:ltr;block-progression:tb;writing-mode:lr-tb;text-anchor:start;baseline-shift:baseline;color:#000000;fill:#1476b6;fill-opacity:1;stroke:none;stroke-width:6.94131947;marker:none;visibility:visible;display:inline;overflow:visible;enable-background:accumulate;font-family:Sans;-inkscape-font-specification:Sans"
         d="m 313.12495,172.53125 c 0.65951,3.78271 3.70886,6.72569 7.59375,7.03125 l -7.625,0 0,-6.75 c 0,-0.11805 0.0302,-0.1667 0.0312,-0.28125 z"
         id="path3863-5" />
      <path
         inkscape:connector-curvature="0"
         style="font-size:medium;font-style:normal;font-variant:normal;font-weight:normal;font-stretch:normal;text-indent:0;text-align:start;text-decoration:none;line-height:normal;letter-spacing:normal;word-spacing:normal;text-transform:none;direction:ltr;block-progression:tb;writing-mode:lr-tb;text-anchor:start;baseline-shift:baseline;color:#000000;fill:#1476b6;fill-opacity:1;stroke:none;stroke-width:6.94131947;marker:none;visibility:visible;display:inline;overflow:visible;enable-background:accumulate;font-family:Sans;-inkscape-font-specification:Sans"
         d="m 352.0937,247.75 7.65625,0 0,6.75 c 0,0.14299 -0.0297,0.20589 -0.0312,0.34375 -0.64124,-3.81541 -3.71054,-6.79853 -7.625,-7.09375 z"
         id="path3859-6" />
      <path
         inkscape:connector-curvature="0"
         style="font-size:medium;font-style:normal;font-variant:normal;font-weight:normal;font-stretch:normal;text-indent:0;text-align:start;text-decoration:none;line-height:normal;letter-spacing:normal;word-spacing:normal;text-transform:none;direction:ltr;block-progression:tb;writing-mode:lr-tb;text-anchor:start;baseline-shift:baseline;color:#000000;fill:#1476b6;fill-opacity:1;stroke:none;stroke-width:6.94131947;marker:none;visibility:visible;display:inline;overflow:visible;enable-background:accumulate;font-family:Sans;-inkscape-font-specification:Sans"
         d="m 351.5,254.5625 c 0.88364,0 1.5625,0.65863 1.5625,1.625 0,0.98294 -0.69654,1.65625 -1.5625,1.65625 -0.84918,0 -1.5625,-0.68143 -1.5625,-1.65625 0,-0.95823 0.69556,-1.625 1.5625,-1.625 z"
         id="path3857-1" />
      <path
         inkscape:connector-curvature="0"
         style="font-size:medium;font-style:normal;font-variant:normal;font-weight:normal;font-stretch:normal;text-indent:0;text-align:start;text-decoration:none;line-height:normal;letter-spacing:normal;word-spacing:normal;text-transform:none;direction:ltr;block-progression:tb;writing-mode:lr-tb;text-anchor:start;baseline-shift:baseline;color:#000000;fill:#1476b6;fill-opacity:1;stroke:none;stroke-width:6.94131947;marker:none;visibility:visible;display:inline;overflow:visible;enable-background:accumulate;font-family:Sans;-inkscape-font-specification:Sans"
         d="m 358.25,261.09375 c -0.0578,0.0759 -0.0633,0.20891 -0.125,0.28125 -0.0184,0.0216 -0.0746,0.0409 -0.0937,0.0625 0.084,-0.10691 0.13975,-0.23292 0.21875,-0.34375 z"
         id="path1948-7-6-5-2-8-3-7" />
    </g>
  </g>
</svg>
