<?xml version="1.0" encoding="UTF-8" standalone="no"?>
<!-- Created with Inkscape (http://www.inkscape.org/) -->

<svg
   xmlns:dc="http://purl.org/dc/elements/1.1/"
   xmlns:cc="http://creativecommons.org/ns#"
   xmlns:rdf="http://www.w3.org/1999/02/22-rdf-syntax-ns#"
   xmlns:svg="http://www.w3.org/2000/svg"
   xmlns="http://www.w3.org/2000/svg"
   xmlns:sodipodi="http://sodipodi.sourceforge.net/DTD/sodipodi-0.dtd"
   xmlns:inkscape="http://www.inkscape.org/namespaces/inkscape"
   width="256"
   height="256"
   id="svg4745"
   version="1.1"
   inkscape:version="0.48.2 r9819"
   sodipodi:docname="python-edinburgh-avatar.svg"
   inkscape:export-filename="/Users/mark/Documents/Development/pythonedinburgh/resources/logo/rasters/avatar_64.png"
   inkscape:export-xdpi="22.5"
   inkscape:export-ydpi="22.5">
  <defs
     id="defs4747" />
  <sodipodi:namedview
     id="base"
     pagecolor="#1476b6"
     bordercolor="#666666"
     borderopacity="1.0"
     inkscape:pageopacity="1"
     inkscape:pageshadow="2"
     inkscape:zoom="1.3291244"
     inkscape:cx="111.92834"
     inkscape:cy="91.488401"
     inkscape:document-units="px"
     inkscape:current-layer="layer1"
     showgrid="true"
     fit-margin-top="0"
     fit-margin-left="0"
     fit-margin-right="0"
     fit-margin-bottom="0"
     inkscape:window-width="1436"
     inkscape:window-height="856"
     inkscape:window-x="4"
     inkscape:window-y="0"
     inkscape:window-maximized="1"
     inkscape:showpageshadow="false"
     inkscape:snap-nodes="false"
     inkscape:snap-bbox="true">
    <inkscape:grid
       type="xygrid"
       id="grid2985"
       empspacing="4"
       visible="true"
       enabled="true"
       snapvisiblegridlinesonly="true"
       spacingx="16px"
       spacingy="16px" />
  </sodipodi:namedview>
  <metadata
     id="metadata4750">
    <rdf:RDF>
      <cc:Work
         rdf:about="">
        <dc:format>image/svg+xml</dc:format>
        <dc:type
           rdf:resource="http://purl.org/dc/dcmitype/StillImage" />
        <dc:title></dc:title>
      </cc:Work>
    </rdf:RDF>
  </metadata>
  <g
     inkscape:label="Layer 1"
     inkscape:groupmode="layer"
     id="layer1"
     transform="translate(-102.03025,-301.63339)">
    <g
       transform="matrix(1.5362439,1.5063965,-1.5362439,1.5063965,41.460898,-399.00713)"
       id="g4033-0-7-3-1-5"
       style="fill:#ffffff">
      <path
         id="path1948-75-2-4-6-7-5-0"
         d="m 335.83602,157.79213 c -4.58366,0.0213 -8.96094,0.41222 -12.8125,1.09375 -11.34622,2.00451 -13.40625,6.2001 -13.40625,13.9375 l 0,10.21875 26.8125,0 0,3.40625 -26.8125,0 -10.0625,0 c -7.79246,0 -14.61576,4.68372 -16.75,13.59375 -2.46182,10.21297 -2.57102,16.58602 0,27.25 1.90592,7.93785 6.45754,13.59375 14.25,13.59375 l 9.21875,0 0,-12.25 c 0,-8.8499 7.65714,-16.65625 16.75,-16.65625 l 26.78125,0 c 7.45495,0 13.40625,-6.13816 13.40625,-13.625 l 0,-25.53125 c 0,-7.26634 -6.12998,-12.72477 -13.40625,-13.9375 -4.60599,-0.76672 -9.3851,-1.11504 -13.96875,-1.09375 z m -14.5,8.21875 c 2.76954,0 5.03125,2.29865 5.03125,5.125 -1e-5,2.81634 -2.26171,5.09375 -5.03125,5.09375 -2.77948,0 -5.03125,-2.27741 -5.03125,-5.09375 -1e-5,-2.82635 2.25177,-5.125 5.03125,-5.125 z"
         style="fill:#ffffff;fill-opacity:1"
         inkscape:connector-curvature="0" />
      <path
         id="path1948-7-6-5-2-8-1-1-5"
         d="m 336.99228,269.54213 c 4.58365,-0.0213 8.96094,-0.41222 12.8125,-1.09375 11.34621,-2.0045 13.40624,-6.2001 13.40624,-13.9375 l 0,-10.21875 -26.81249,0 0,-3.40625 26.81249,0 10.0625,0 c 7.79246,0 14.61576,-4.68372 16.75,-13.59375 2.46182,-10.21297 2.57102,-16.58602 0,-27.25 -1.90592,-7.93785 -6.45754,-13.59375 -14.25,-13.59375 l -9.21875,0 0,12.25 c 0,8.8499 -7.65714,16.65625 -16.74999,16.65625 l -26.78125,0 c -7.45495,0 -13.40626,6.13816 -13.40625,13.625 l 0,25.53125 c 0,7.26634 6.12998,12.72478 13.40625,13.9375 4.60598,0.76673 9.38509,1.11505 13.96875,1.09375 z m 14.5,-8.21875 c -2.76955,0 -5.03125,-2.29865 -5.03125,-5.125 0,-2.81634 2.2617,-5.09374 5.03125,-5.09374 2.77947,0 5.03125,2.27741 5.03125,5.09374 0,2.82635 -2.25178,5.125 -5.03125,5.125 z"
         style="fill:#ffffff;fill-opacity:1"
         inkscape:connector-curvature="0" />
    </g>
  </g>
</svg>
